<svg width="24" height="24" xmlns="http://www.w3.org/2000/svg"><g clip-path="url(#a)"><path d="M23.567 12.003c-.468-.865-1.269-1.495-2.254-1.774a3.72 3.72 0 0 0-2.71.262c.002-.27.001-.522 0-.756l-.002-.41a.649.649 0 0 0-.648-.65H.652a.649.649 0 0 0-.65.65l-.001.41c-.015 2.532-.042 7.245 4.12 12.17.124.146.305.23.496.23h9.368c.191 0 .372-.084.496-.23.389-.46.741-.919 1.06-1.374.858-.13 6.91-1.203 8.27-5.576.318-1.025.231-2.074-.245-2.952ZM4.922 20.838c-3.55-4.336-3.635-8.357-3.624-10.865h16.009c.01 2.508-.075 6.529-3.625 10.865h-8.76Zm17.65-6.268c-.853 2.746-4.223 3.963-6.07 4.433 1.439-2.574 1.898-4.971 2.04-6.882a2.452 2.452 0 0 1 2.417-.644c.646.183 1.167.59 1.468 1.144.312.577.362 1.25.145 1.95ZM5.898 6.649a.649.649 0 0 0 1.298 0c0-.2.033-.271.1-.413.095-.201.224-.476.224-.966s-.13-.764-.224-.965c-.067-.142-.1-.214-.1-.413 0-.2.033-.271.1-.413.095-.2.224-.476.224-.965a.649.649 0 0 0-1.297 0c0 .2-.034.27-.1.413-.095.2-.225.475-.225.965s.13.764.224.965c.067.142.1.214.1.413 0 .2-.033.271-.1.413a2.03 2.03 0 0 0-.224.966ZM8.492 6.649a.649.649 0 0 0 1.297 0c0-.2.034-.271.1-.413.095-.201.225-.476.225-.966s-.13-.764-.224-.965c-.067-.142-.1-.214-.1-.413 0-.2.033-.271.1-.413.094-.2.224-.476.224-.965a.649.649 0 0 0-1.297 0c0 .2-.034.27-.1.413-.095.2-.225.475-.225.965s.13.764.224.965c.067.142.1.214.1.413 0 .2-.033.271-.1.413a2.03 2.03 0 0 0-.224.966ZM11.086 6.649a.649.649 0 0 0 1.297 0c0-.2.034-.271.1-.413.095-.201.225-.476.225-.966s-.13-.764-.224-.965c-.067-.142-.1-.214-.1-.413 0-.2.033-.271.1-.413.094-.2.224-.476.224-.965a.649.649 0 0 0-1.298 0c0 .2-.033.27-.1.413a2.03 2.03 0 0 0-.224.965c0 .49.13.764.224.965.067.142.1.214.1.413 0 .2-.033.271-.1.413a2.03 2.03 0 0 0-.224.966Z"/></g><defs><clipPath id="a"><path d="M0 0h24v24H0z"/></clipPath></defs></svg>
