<svg width="21" height="21" xmlns="http://www.w3.org/2000/svg"><path d="M6.656 6.703C7.72 5.641 9 5.11 10.5 5.11s2.766.532 3.797 1.594C15.359 7.734 15.89 9 15.89 10.5s-.532 2.781-1.594 3.844C13.266 15.375 12 15.89 10.5 15.89s-2.781-.516-3.844-1.547C5.625 13.28 5.11 12 5.11 10.5s.516-2.766 1.547-3.797Zm1.36 6.281a3.386 3.386 0 0 0 2.484 1.032c.969 0 1.797-.344 2.484-1.032a3.386 3.386 0 0 0 1.032-2.484c0-.969-.344-1.797-1.032-2.484A3.386 3.386 0 0 0 10.5 6.984c-.969 0-1.797.344-2.484 1.032A3.386 3.386 0 0 0 6.984 10.5c0 .969.344 1.797 1.032 2.484Zm8.953-8.953c.25.219.375.5.375.844s-.125.64-.375.89c-.219.25-.5.376-.844.376s-.64-.125-.89-.375a1.217 1.217 0 0 1-.376-.891c0-.344.125-.625.375-.844.25-.25.547-.375.891-.375s.625.125.844.375Zm3.984 2.157c.031.843.047 2.28.047 4.312 0 2.031-.016 3.469-.047 4.313-.094 1.906-.672 3.39-1.734 4.453-1.032 1.03-2.5 1.578-4.407 1.64-.843.063-2.28.094-4.312.094-2.031 0-3.469-.031-4.313-.094-1.906-.093-3.375-.656-4.406-1.687a4.524 4.524 0 0 1-.984-1.313c-.25-.5-.438-.984-.563-1.453a8.448 8.448 0 0 1-.14-1.64C.03 13.969 0 12.53 0 10.5c0-2.031.031-3.484.094-4.36C.187 4.267.75 2.814 1.78 1.782 2.813.72 4.281.141 6.188.047 7.03.016 8.467 0 10.5 0c2.031 0 3.469.016 4.313.047 1.906.094 3.374.672 4.406 1.734 1.062 1.032 1.64 2.5 1.734 4.407Zm-2.25 10.5c.094-.25.172-.563.235-.938.062-.406.109-.875.14-1.406.031-.563.047-1.016.047-1.36V8.016c0-.344-.016-.782-.047-1.313a13.252 13.252 0 0 0-.14-1.406 5.075 5.075 0 0 0-.235-.984c-.375-.97-1.047-1.641-2.015-2.016a5.078 5.078 0 0 0-.985-.235 13.26 13.26 0 0 0-1.406-.14 23.159 23.159 0 0 0-1.313-.047H8.016c-.344 0-.797.016-1.36.047-.531.031-1 .078-1.406.14-.375.063-.688.141-.938.235-.968.375-1.64 1.047-2.015 2.015-.094.25-.172.579-.235.985-.062.375-.109.844-.14 1.406-.031.531-.047.969-.047 1.313v5.625c.031.468.063.875.094 1.218a12.43 12.43 0 0 0 .328 1.829c.406.968 1.078 1.64 2.015 2.015.25.094.563.172.938.235.406.062.875.109 1.406.14.563.031 1 .047 1.313.047H12.984c.344 0 .782-.016 1.313-.047a13.251 13.251 0 0 0 1.406-.14c.406-.063.735-.141.985-.235.968-.406 1.64-1.078 2.015-2.015Z"/></svg>
