<svg width="156" height="57" xmlns="http://www.w3.org/2000/svg"><g clip-path="url(#a)"><path d="m32.911 32.097-9.67-10.715h-1.577v24.775h4.972V32.541l6.275 6.553 6.276-6.553-.035 13.616h4.973V21.382H42.58l-9.67 10.715ZM57.974 21.757H53.07v24.4h4.904v-24.4ZM73.852 31.483c-1.406-.478-2.606-1.092-2.74-2.457-.104-1.366.686-2.628 2.434-2.73.754-.034 2.297-.068 5.006 1.024l.614-4.71c-3.154-1.093-4.834-1.093-6.103-1.024-4.08.205-6.927 3.344-6.927 7.44 0 4.095 3.429 6.04 7.27 7.439 1.371.478 2.434 1.092 2.537 2.494.137 1.335-1.097 2.355-2.537 2.458-1.131.102-4.183.033-6.996-1.946l-.617 5.119c3.326 1.707 6.378 1.877 7.75 1.775 4.595-.24 7.403-3.344 7.403-7.406 0-3.89-3.292-6.074-7.098-7.474M86.434 26.637h6.103v19.52h4.903v-19.52h6.104v-4.846h-17.11v4.846ZM121.681 41.448c-9.807 0-9.807-15.085 0-15.085 9.806 0 9.807 15.085 0 15.085Zm0-20.1c-16.871 0-16.871 25.15 0 25.15 16.87 0 16.871-25.15 0-25.15ZM25.876 15.114c-.32.159-.675.24-1.033.238-1.065 0-1.55-.823-1.55-1.588-.007-.4.13-.789.388-1.096.28-.321.682-.492 1.162-.492.323-.007.641.073.922.232l.175.09.17-1.455-.093-.04a2.897 2.897 0 0 0-1.174-.232c-2.077 0-3.023 1.558-3.023 3.007 0 .785.268 1.517.755 2.061.551.616 1.335.942 2.268.942.444-.006.883-.09 1.298-.248l.097-.04-.19-1.465-.174.09M32.496 14.9c-.283.327-.69.5-1.175.5-1.077 0-1.568-.836-1.568-1.612-.006-.406.133-.8.394-1.113.283-.327.689-.499 1.174-.499 1.077 0 1.568.835 1.568 1.612.007.406-.133.8-.393 1.113Zm-1.175-4.157c-2.107 0-3.067 1.58-3.067 3.048 0 1.469.96 3.049 3.067 3.049s3.068-1.58 3.068-3.049c0-1.468-.96-3.048-3.068-3.048ZM36.773 16.761h1.408v-2.26h1.446v-1.402h-1.446v-.86h1.7v-1.4h-3.108v5.922ZM42.137 16.761h1.408v-2.26h1.445v-1.402h-1.445v-.86h1.7v-1.4h-3.108v5.922ZM48.908 14.5H50.4V13.1h-1.493v-.86h1.707v-1.4H47.5v5.922h3.212V15.36h-1.804v-.86ZM54.506 14.5h1.493V13.1h-1.493v-.86h1.707v-1.4h-3.115v5.922h3.211V15.36h-1.803v-.86ZM63.944 10.838h-1.409v5.923h1.409v-5.923ZM69.712 13.81l-2.669-3.09h-.5v6.041h1.408v-2.857l2.679 2.976h.498v-6.034h-1.416v2.963ZM77.098 12.24h1.414v4.521h1.408V12.24h1.414v-1.393h-4.236v1.393ZM86.343 13.1h-1.427v-2.262h-1.408v5.923h1.408v-2.26h1.427v2.26h1.409v-5.923h-1.409V13.1ZM91.76 15.36v-.86h1.493V13.1H91.76v-.86h1.708v-1.4h-3.116v5.922h3.211V15.36H91.76Z"/><path d="M3.812 53.206V3.793H156V0H0v57h156V10.846h-52.455v3.794h48.643v38.566H3.812Z"/></g><defs><clipPath id="a"><path d="M0 0h156v57H0z"/></clipPath></defs></svg>
