<svg width="16" height="16" xmlns="http://www.w3.org/2000/svg"><path d="M15.531 11.313c.313.124.469.354.469.687 0 .063-.01.115-.031.156l-.75 3.25a.545.545 0 0 1-.156.281.507.507 0 0 1-.25.22.602.602 0 0 1-.313.093c-4 0-7.417-1.417-10.25-4.25S0 5.5 0 1.5c0-.104.02-.208.063-.313A.86.86 0 0 1 .28.938.736.736 0 0 1 .594.781l3.25-.75A.348.348 0 0 1 4 0c.333 0 .563.156.688.469l1.5 3.5a.62.62 0 0 1 .062.281.77.77 0 0 1-.281.594L4.094 6.375c.479 1.042 1.26 2.104 2.343 3.188 1.084 1.083 2.146 1.864 3.188 2.343l1.531-1.875a.77.77 0 0 1 .594-.281.62.62 0 0 1 .281.063l3.5 1.5Z"/></svg>
